# xmcd CD database file
#
# Track frame offsets:
#	150
#	32007
#	58960
#	88552
#	103657
#	129895
#	160945
#	181490
#	224237
#	265530
#
# Disc length: 3787 seconds
#
# Revision: 0
# Processed by: cddbd v1.4PL0 Copyright (c) Steve Scherf et al.
# Submitted via: Feurio! 1.65 - http://www.feurio.com
#
DISCID=8b0ec90a
DTITLE=Danny Click - Night Of The Living Guitars
DYEAR=2000
DGENRE=Bluesrock
TTITLE0=Not Fade Away - Who Do You Love
TTITLE1=Thunder
TTITLE2=Neanderthal
TTITLE3=Backroads
TTITLE4=Mercury Blues
TTITLE5=Blues Are Too Good For You
TTITLE6=Flying Surfers
TTITLE7=Shot Of Ry - Down In Mississippi
TTITLE8=Baby Please Don't Go
TTITLE9=Hey Lady (Studio Track)
EXTD=Appaloosa, 2000
EXTT0=
EXTT1=
EXTT2=
EXTT3=
EXTT4=
EXTT5=
EXTT6=
EXTT7=
EXTT8=
EXTT9=
PLAYORDER=
